<mxfile host="app.diagrams.net" agent="Mozilla/5.0 (Windows NT 10.0; Win64; x64) AppleWebKit/537.36 (KHTML, like Gecko) Chrome/134.0.0.0 Safari/537.36" version="26.1.1">
  <diagram name="Page-1" id="cmYstCt3c5cjCZQGy6HA">
    <mxGraphModel dx="1114" dy="558" grid="1" gridSize="10" guides="1" tooltips="1" connect="1" arrows="1" fold="1" page="1" pageScale="1" pageWidth="850" pageHeight="1100" math="0" shadow="0">
      <root>
        <mxCell id="0" />
        <mxCell id="1" parent="0" />
        <mxCell id="tXBx9S8LxBdpdJGvE2Zg-1" value="Kaffeknekt" style="rounded=1;whiteSpace=wrap;html=1;" vertex="1" parent="1">
          <mxGeometry x="365" y="30" width="135" height="60" as="geometry" />
        </mxCell>
        <mxCell id="tXBx9S8LxBdpdJGvE2Zg-2" value="Execution" style="rounded=1;whiteSpace=wrap;html=1;" vertex="1" parent="1">
          <mxGeometry x="660" y="160" width="120" height="60" as="geometry" />
        </mxCell>
        <mxCell id="tXBx9S8LxBdpdJGvE2Zg-3" value="GUI" style="rounded=1;whiteSpace=wrap;html=1;" vertex="1" parent="1">
          <mxGeometry x="230" y="160" width="120" height="60" as="geometry" />
        </mxCell>
        <mxCell id="tXBx9S8LxBdpdJGvE2Zg-4" value="Simulation" style="rounded=1;whiteSpace=wrap;html=1;" vertex="1" parent="1">
          <mxGeometry x="520" y="160" width="120" height="60" as="geometry" />
        </mxCell>
        <mxCell id="tXBx9S8LxBdpdJGvE2Zg-5" value="Database" style="rounded=1;whiteSpace=wrap;html=1;" vertex="1" parent="1">
          <mxGeometry x="370" y="160" width="120" height="60" as="geometry" />
        </mxCell>
        <mxCell id="tXBx9S8LxBdpdJGvE2Zg-6" value="Sensor readings&amp;nbsp;" style="rounded=1;whiteSpace=wrap;html=1;" vertex="1" parent="1">
          <mxGeometry x="90" y="160" width="120" height="60" as="geometry" />
        </mxCell>
        <mxCell id="tXBx9S8LxBdpdJGvE2Zg-7" value="" style="endArrow=classic;html=1;rounded=0;exitX=0.5;exitY=1;exitDx=0;exitDy=0;entryX=0.5;entryY=0;entryDx=0;entryDy=0;" edge="1" parent="1" source="tXBx9S8LxBdpdJGvE2Zg-1" target="tXBx9S8LxBdpdJGvE2Zg-2">
          <mxGeometry width="50" height="50" relative="1" as="geometry">
            <mxPoint x="460" y="120" as="sourcePoint" />
            <mxPoint x="510" y="70" as="targetPoint" />
          </mxGeometry>
        </mxCell>
        <mxCell id="tXBx9S8LxBdpdJGvE2Zg-8" value="" style="endArrow=classic;html=1;rounded=0;" edge="1" parent="1">
          <mxGeometry width="50" height="50" relative="1" as="geometry">
            <mxPoint x="430" y="90" as="sourcePoint" />
            <mxPoint x="580" y="160" as="targetPoint" />
          </mxGeometry>
        </mxCell>
        <mxCell id="tXBx9S8LxBdpdJGvE2Zg-9" value="" style="endArrow=classic;html=1;rounded=0;entryX=0.5;entryY=0;entryDx=0;entryDy=0;" edge="1" parent="1" target="tXBx9S8LxBdpdJGvE2Zg-5">
          <mxGeometry width="50" height="50" relative="1" as="geometry">
            <mxPoint x="430" y="90" as="sourcePoint" />
            <mxPoint x="490" y="80" as="targetPoint" />
          </mxGeometry>
        </mxCell>
        <mxCell id="tXBx9S8LxBdpdJGvE2Zg-10" value="" style="endArrow=classic;html=1;rounded=0;entryX=0.5;entryY=0;entryDx=0;entryDy=0;" edge="1" parent="1" target="tXBx9S8LxBdpdJGvE2Zg-3">
          <mxGeometry width="50" height="50" relative="1" as="geometry">
            <mxPoint x="430" y="90" as="sourcePoint" />
            <mxPoint x="490" y="60" as="targetPoint" />
          </mxGeometry>
        </mxCell>
        <mxCell id="tXBx9S8LxBdpdJGvE2Zg-11" value="" style="endArrow=classic;html=1;rounded=0;entryX=0.5;entryY=0;entryDx=0;entryDy=0;" edge="1" parent="1" target="tXBx9S8LxBdpdJGvE2Zg-6">
          <mxGeometry width="50" height="50" relative="1" as="geometry">
            <mxPoint x="430" y="90" as="sourcePoint" />
            <mxPoint x="490" y="60" as="targetPoint" />
          </mxGeometry>
        </mxCell>
      </root>
    </mxGraphModel>
  </diagram>
</mxfile>
